<svg width="192" height="192" viewBox="0 0 192 192" xmlns="http://www.w3.org/2000/svg">
  <defs>
    <!-- 主要渐变 -->
    <linearGradient id="primaryGradient" x1="0%" y1="0%" x2="100%" y2="100%">
      <stop offset="0%" style="stop-color:#dc2626;stop-opacity:1" />
      <stop offset="50%" style="stop-color:#ef4444;stop-opacity:1" />
      <stop offset="100%" style="stop-color:#f87171;stop-opacity:1" />
    </linearGradient>
    
    <!-- 阴影渐变 -->
    <linearGradient id="shadowGrad" x1="0%" y1="0%" x2="100%" y2="100%">
      <stop offset="0%" style="stop-color:#991b1b;stop-opacity:1" />
      <stop offset="100%" style="stop-color:#7f1d1d;stop-opacity:1" />
    </linearGradient>
    
    <!-- 按键渐变 -->
    <linearGradient id="keyGradient" x1="0%" y1="0%" x2="100%" y2="100%">
      <stop offset="0%" style="stop-color:#ffffff;stop-opacity:0.95" />
      <stop offset="100%" style="stop-color:#e5e7eb;stop-opacity:0.9" />
    </linearGradient>
    
    <!-- 阴影滤镜 -->
    <filter id="shadow" x="-20%" y="-20%" width="140%" height="140%">
      <feDropShadow dx="2" dy="4" stdDeviation="4" flood-color="#000000" flood-opacity="0.25"/>
    </filter>
    
    <filter id="innerShadow" x="-20%" y="-20%" width="140%" height="140%">
      <feDropShadow dx="1" dy="2" stdDeviation="2" flood-color="#000000" flood-opacity="0.15"/>
    </filter>
  </defs>
  
  <!-- 背景圆角矩形 -->
  <rect x="8" y="8" width="176" height="176" rx="44" ry="44" 
        fill="url(#primaryGradient)" filter="url(#shadow)"/>
  
  <!-- 内层边框 -->
  <rect x="16" y="16" width="160" height="160" rx="36" ry="36" 
        fill="none" stroke="url(#shadowGrad)" stroke-width="2" opacity="0.4"/>
  
  <!-- 手机主体 -->
  <rect x="64" y="40" width="64" height="112" rx="12" ry="12" 
        fill="url(#shadowGrad)" filter="url(#innerShadow)"/>
  
  <!-- 手机屏幕 -->
  <rect x="72" y="48" width="48" height="96" rx="6" ry="6" 
        fill="#1f2937" stroke="#374151" stroke-width="1"/>
  
  <!-- 屏幕内容 -->
  <rect x="80" y="56" width="32" height="2" rx="1" fill="#6b7280" opacity="0.6"/>
  <rect x="80" y="64" width="24" height="2" rx="1" fill="#6b7280" opacity="0.4"/>
  <rect x="80" y="72" width="28" height="2" rx="1" fill="#6b7280" opacity="0.5"/>
  
  <!-- 左侧按键 -->
  <g>
    <!-- 音量+ -->
    <rect x="48" y="72" width="12" height="20" rx="6" ry="6" 
          fill="url(#keyGradient)" filter="url(#innerShadow)"/>
    <rect x="50" y="74" width="8" height="16" rx="4" ry="4" 
          fill="none" stroke="url(#shadowGrad)" stroke-width="1" opacity="0.3"/>
    
    <!-- 音量- -->
    <rect x="48" y="100" width="12" height="20" rx="6" ry="6" 
          fill="url(#keyGradient)" filter="url(#innerShadow)"/>
    <rect x="50" y="102" width="8" height="16" rx="4" ry="4" 
          fill="none" stroke="url(#shadowGrad)" stroke-width="1" opacity="0.3"/>
  </g>
  
  <!-- 右侧电源键 -->
  <rect x="132" y="80" width="12" height="32" rx="6" ry="6" 
        fill="url(#keyGradient)" filter="url(#innerShadow)"/>
  <rect x="134" y="82" width="8" height="28" rx="4" ry="4" 
        fill="none" stroke="url(#shadowGrad)" stroke-width="1" opacity="0.3"/>
  
  <!-- 中心控制图标 -->
  <g transform="translate(96, 96)">
    <!-- 控制环 -->
    <circle cx="0" cy="0" r="20" fill="none" stroke="url(#keyGradient)" 
            stroke-width="3" opacity="0.9"/>
    
    <!-- 方向控制 -->
    <g stroke="url(#keyGradient)" stroke-width="2.5" fill="none" stroke-linecap="round">
      <!-- 上 -->
      <path d="M -6,-10 L 0,-16 L 6,-10" opacity="0.9"/>
      <!-- 下 -->
      <path d="M -6,10 L 0,16 L 6,10" opacity="0.9"/>
      <!-- 左 -->
      <path d="M -10,-6 L -16,0 L -10,6" opacity="0.9"/>
      <!-- 右 -->
      <path d="M 10,-6 L 16,0 L 10,6" opacity="0.9"/>
    </g>
    
    <!-- 中心点 -->
    <circle cx="0" cy="0" r="4" fill="url(#keyGradient)" opacity="0.8"/>
    <circle cx="0" cy="0" r="2" fill="url(#primaryGradient)"/>
  </g>
  
  <!-- 底部功能指示 -->
  <g transform="translate(96, 160)">
    <rect x="-16" y="0" width="32" height="3" rx="1.5" 
          fill="url(#keyGradient)" opacity="0.6"/>
    <circle cx="-12" cy="1.5" r="1.5" fill="url(#primaryGradient)" opacity="0.8"/>
    <circle cx="-4" cy="1.5" r="1.5" fill="url(#primaryGradient)" opacity="0.6"/>
    <circle cx="4" cy="1.5" r="1.5" fill="url(#primaryGradient)" opacity="0.4"/>
    <circle cx="12" cy="1.5" r="1.5" fill="url(#primaryGradient)" opacity="0.8"/>
  </g>
  
  <!-- 顶部状态指示 -->
  <g transform="translate(96, 32)">
    <rect x="-12" y="0" width="3" height="6" rx="1" fill="url(#keyGradient)" opacity="0.4"/>
    <rect x="-6" y="0" width="3" height="8" rx="1" fill="url(#keyGradient)" opacity="0.6"/>
    <rect x="0" y="0" width="3" height="10" rx="1" fill="url(#keyGradient)" opacity="0.8"/>
    <rect x="6" y="0" width="3" height="7" rx="1" fill="url(#keyGradient)" opacity="0.5"/>
    <rect x="12" y="0" width="3" height="9" rx="1" fill="url(#keyGradient)" opacity="0.7"/>
  </g>
  
  <!-- 外圈装饰 -->
  <rect x="12" y="12" width="168" height="168" rx="40" ry="40" 
        fill="none" stroke="url(#primaryGradient)" stroke-width="1" 
        opacity="0.3" stroke-dasharray="4,2"/>
</svg>